<svg width="1024" height="1024" viewBox="0 0 1024 1024" fill="none" xmlns="http://www.w3.org/2000/svg" role="img" aria-label="JSON Studio logo">
  <defs>
    <linearGradient id="g" x1="0" y1="0" x2="1024" y2="1024" gradientUnits="userSpaceOnUse">
      <stop offset="0" stop-color="#4C8DFF"/>
      <stop offset="1" stop-color="#C678DD"/>
    </linearGradient>
  </defs>

  <rect x="70" y="70" width="884" height="884" rx="200" fill="#15181F"/>

  <g stroke="url(#g)" stroke-width="68" stroke-linecap="round" stroke-linejoin="round" fill="none">
    <!-- { -->
    <path d="M370 268 Q300 268 300 346 L300 434 Q300 512 226 512 Q300 512 300 590 L300 678 Q300 756 370 756"/>
    <!-- } -->
    <path d="M654 268 Q724 268 724 346 L724 434 Q724 512 798 512 Q724 512 724 590 L724 678 Q724 756 654 756"/>
  </g>

  <!-- node-link tree -->
  <g stroke="url(#g)" stroke-width="26" stroke-linecap="round" fill="none">
    <path d="M512 452 L512 560"/>
    <path d="M452 560 L572 560"/>
    <path d="M452 560 L452 600"/>
    <path d="M572 560 L572 600"/>
  </g>
  <g fill="url(#g)">
    <circle cx="512" cy="452" r="44"/>
    <circle cx="452" cy="612" r="36"/>
    <circle cx="572" cy="612" r="36"/>
  </g>
</svg>
